/* XPM */
static char * xine_32_xpm[] = {
"32 32 408 2",
"  	c None",
". 	c #333333",
"+ 	c #474747",
"@ 	c #999999",
"# 	c #B9B9B9",
"$ 	c #B5B5B5",
"% 	c #B2B2B2",
"& 	c #B6B0B0",
"* 	c #B0A1A1",
"= 	c #A28D8D",
"- 	c #303030",
"; 	c #A5A5A5",
"> 	c #C7C7C7",
", 	c #C4C4C4",
"' 	c #D4D4D4",
") 	c #D0D0D0",
"! 	c #CCCCCC",
"~ 	c #C8C8C8",
"{ 	c #C9C0C0",
"] 	c #D3C0C0",
"^ 	c #DEBFBF",
"/ 	c #D3AFAF",
"( 	c #D2A5A5",
"_ 	c #A98181",
": 	c #5D5D5D",
"< 	c #4C4C4C",
"[ 	c #D2D2D2",
"} 	c #DDDDDD",
"| 	c #DADADA",
"1 	c #D6D6D6",
"2 	c #D1D1D1",
"3 	c #CDCDCD",
"4 	c #C9C9C9",
"5 	c #D5C0C0",
"6 	c #E1BEBE",
"7 	c #EBBEBE",
"8 	c #F7BCBC",
"9 	c #E5AFAD",
"0 	c #DCB8AD",
"a 	c #494949",
"b 	c #808080",
"c 	c #DCDCDC",
"d 	c #EDEDED",
"e 	c #E5E5E5",
"f 	c #DFDFDF",
"g 	c #DBDBDB",
"h 	c #D7D7D7",
"i 	c #D3D3D3",
"j 	c #CECECE",
"k 	c #CBC0C0",
"l 	c #D7BEBE",
"m 	c #E4BFBF",
"n 	c #F0BDBD",
"o 	c #FCBBBB",
"p 	c #F8C4BB",
"q 	c #ECCFBD",
"r 	c #CEC6AD",
"s 	c #E7E7E7",
"t 	c #F8F8F8",
"u 	c #F2F2F2",
"v 	c #EBEBEB",
"w 	c #E2E2E2",
"x 	c #D9D9D9",
"y 	c #CFCFCF",
"z 	c #DABFBF",
"A 	c #E7BEBE",
"B 	c #F3BEBE",
"C 	c #FEBDBB",
"D 	c #F1C9BC",
"E 	c #E5D5BC",
"F 	c #DCE0BD",
"G 	c #C1D3AD",
"H 	c #F9F9F9",
"I 	c #FFFFFF",
"J 	c #F0F0F0",
"K 	c #E8E8E8",
"L 	c #E0E0E0",
"M 	c #CACACA",
"N 	c #CDC0C0",
"O 	c #DDBEBE",
"P 	c #FBBCBC",
"Q 	c #F7C3BA",
"R 	c #E9D0BC",
"S 	c #DEDFBC",
"T 	c #D4E8BD",
"U 	c #CBF1BC",
"V 	c #B3E1AD",
"W 	c #000000",
"X 	c #EEEEEE",
"Y 	c #F3F3F3",
"Z 	c #F7F7F7",
"` 	c #D8D8D8",
" .	c #CBCBCB",
"..	c #CEC1C1",
"+.	c #F1BCBC",
"@.	c #EECCBB",
"#.	c #E0DCBD",
"$.	c #D6E7BD",
"%.	c #C3FABB",
"&.	c #BBFEBB",
"*.	c #AEDFAE",
"=.	c #9B9B9B",
"-.	c #ECECEC",
";.	c #F1F1F1",
">.	c #F6F6F6",
",.	c #D1C0C0",
"'.	c #E5BEBE",
").	c #F9BCBC",
"!.	c #F3C5BC",
"~.	c #E4D8BD",
"{.	c #D7E5BC",
"].	c #C2FBBA",
"^.	c #BBFCBB",
"/.	c #BEF3BE",
"(.	c #AED7AE",
"_.	c #94B094",
":.	c #414141",
"<.	c #3C3C3C",
"[.	c #E4E4E4",
"}.	c #E9E9E9",
"|.	c #EFEFEF",
"1.	c #F4F4F4",
"2.	c #ABABAB",
"3.	c #A4A4A4",
"4.	c #9D9D9D",
"5.	c #AB9B9B",
"6.	c #D9E3BC",
"7.	c #C1FCBB",
"8.	c #BBFABB",
"9.	c #BDF0BD",
"0.	c #BFE8BF",
"a.	c #BFE2BF",
"b.	c #ADC6AD",
"c.	c #434343",
"d.	c #3F3F3F",
"e.	c #3A3A3A",
"f.	c #C6C6C6",
"g.	c #E6E6E6",
"h.	c #F5F5F5",
"i.	c #C2C2C2",
"j.	c #090909",
"k.	c #C39A9A",
"l.	c #C1A499",
"m.	c #BEFEBB",
"n.	c #BCF5BC",
"o.	c #BEEBBE",
"p.	c #BFDCBF",
"q.	c #3B3B3B",
"r.	c #313131",
"s.	c #2C2C2C",
"t.	c #929292",
"u.	c #989898",
"v.	c #1E1E1E",
"w.	c #383838",
"x.	c #A4C199",
"y.	c #BEE5BE",
"z.	c #424242",
"A.	c #3D3D3D",
"B.	c #2E2E2E",
"C.	c #292929",
"D.	c #DFCE6F",
"E.	c #C1C1C1",
"F.	c #B6B6B6",
"G.	c #7F7F7F",
"H.	c #FDFDFD",
"I.	c #9AC79A",
"J.	c #404040",
"K.	c #353535",
"L.	c #2B2B2B",
"M.	c #A58D40",
"N.	c #B29C48",
"O.	c #C3AE57",
"P.	c #BFBFBF",
"Q.	c #D5D5D5",
"R.	c #AEAEAE",
"S.	c #373737",
"T.	c #323232",
"U.	c #2D2D2D",
"V.	c #69612F",
"W.	c #232323",
"X.	c #9B8139",
"Y.	c #A79041",
"Z.	c #BCBCBC",
"`.	c #A9A9A9",
" +	c #343434",
".+	c #2F2F2F",
"++	c #897638",
"@+	c #615B2F",
"#+	c #4B4C29",
"$+	c #5C572D",
"%+	c #161616",
"&+	c #7D6D33",
"*+	c #8D7836",
"=+	c #BABABA",
"-+	c #363636",
";+	c #D3BF60",
">+	c #C9B256",
",+	c #B99F4B",
"'+	c #A18940",
")+	c #817136",
"!+	c #56542C",
"~+	c #0E0E0E",
"{+	c #706530",
"]+	c #B7B7B7",
"^+	c #9F9F9F",
"/+	c #D4BE62",
"(+	c #DBCB6A",
"_+	c #DDCE6C",
":+	c #D9C866",
"<+	c #D1BD5E",
"[+	c #C8AF54",
"}+	c #B49B49",
"|+	c #9C843D",
"1+	c #7A6C34",
"2+	c #010101",
"3+	c #51512B",
"4+	c #B1B1B1",
"5+	c #C5C5C5",
"6+	c #C3C3C3",
"7+	c #C0C7C0",
"8+	c #9BA89B",
"9+	c #C0A64F",
"0+	c #B8A14B",
"a+	c #BEA751",
"b+	c #CCB45C",
"c+	c #D5C164",
"d+	c #DCCD6B",
"e+	c #D8C665",
"f+	c #CFBA5C",
"g+	c #C6AC52",
"h+	c #B09646",
"i+	c #919191",
"j+	c #C1C2C1",
"k+	c #C0CDC0",
"l+	c #C0D3C0",
"m+	c #BEDDBE",
"n+	c #E6DA75",
"o+	c #282828",
"p+	c #C7AE54",
"q+	c #BEA64E",
"r+	c #B6A04A",
"s+	c #C2AB53",
"t+	c #CEB75D",
"u+	c #D7C366",
"v+	c #DFD06D",
"w+	c #DBCB69",
"x+	c #D7C463",
"y+	c #CEB75A",
"z+	c #C3A850",
"A+	c #AEB0AE",
"B+	c #C0CBC0",
"C+	c #C0D1C0",
"D+	c #BFD6BF",
"E+	c #EEE07D",
"F+	c #F1E780",
"G+	c #F6EE84",
"H+	c #EDE47D",
"I+	c #202020",
"J+	c #DACB69",
"K+	c #C5AB51",
"L+	c #BDA54D",
"M+	c #B59F4A",
"N+	c #C4AD56",
"O+	c #D1B95F",
"P+	c #D9C668",
"Q+	c #DFD16E",
"R+	c #DACA68",
"S+	c #D4C262",
"T+	c #272727",
"U+	c #9EAA9E",
"V+	c #BFD8BF",
"W+	c #B5A04B",
"X+	c #C6B259",
"Y+	c #D6C368",
"Z+	c #E4D474",
"`+	c #EEE27E",
" @	c #F2E881",
".@	c #181818",
"+@	c #131313",
"@@	c #E2D571",
"#@	c #D9C968",
"$@	c #CDB85B",
"%@	c #C3A951",
"&@	c #BBA34C",
"*@	c #B8A24C",
"=@	c #C7B057",
"-@	c #D3BC61",
";@	c #DAC969",
">@	c #DECF6D",
",@	c #DAC968",
"'@	c #8A9C8A",
")@	c #ADC7AD",
"!@	c #9C843A",
"~@	c #AA9343",
"{@	c #B8A34D",
"]@	c #C9B55C",
"^@	c #D9C76A",
"/@	c #E6D876",
"(@	c #EFE37F",
"_@	c #0B0B0B",
":@	c #F3EB82",
"<@	c #EADF79",
"[@	c #E0D36F",
"}@	c #D6C565",
"|@	c #CBB458",
"1@	c #C2A850",
"2@	c #B9A24B",
"3@	c #BBA54F",
"4@	c #C9B259",
"5@	c #1C1C1C",
"6@	c #57552D",
"7@	c #4E4F2A",
"8@	c #5F5A2E",
"9@	c #806F34",
"0@	c #907A37",
"a@	c #A0873C",
"b@	c #AC9645",
"c@	c #BCA651",
"d@	c #CDB95F",
"e@	c #DCCA6D",
"f@	c #030303",
"g@	c #F4EB83",
"h@	c #F1E880",
"i@	c #E8DC77",
"j@	c #C9B156",
"k@	c #1D1D1D",
"l@	c #7A6D34",
"m@	c #4C4E2A",
"n@	c #625C2E",
"o@	c #736731",
"p@	c #847234",
"q@	c #947C37",
"r@	c #A28A3E",
"s@	c #AF9946",
"t@	c #BFAB53",
"u@	c #D0BD62",
"v@	c #393939",
"w@	c #ECDF7B",
"x@	c #F1E580",
"y@	c #F5EC84",
"z@	c #EFE57F",
"A@	c #1B1B1B",
"B@	c #151515",
"C@	c #060606",
"D@	c #2A2A2A",
"E@	c #977F3A",
"F@	c #736833",
"G@	c #444829",
"H@	c #55532B",
"I@	c #665E2F",
"J@	c #766932",
"K@	c #877334",
"L@	c #977F38",
"M@	c #E1D172",
"N@	c #222222",
"O@	c #171717",
"P@	c #0D0D0D",
"Q@	c #080808",
"R@	c #C1AA53",
"S@	c #DED06D",
"T@	c #C3A950",
"U@	c #AC9244",
"V@	c #907B3A",
"W@	c #6B6231",
"X@	c #474A29",
"Y@	c #58552C",
"Z@	c #69602F",
"`@	c #796B32",
" #	c #8A7635",
".#	c #9A8039",
"+#	c #191919",
"@#	c #0F0F0F",
"##	c #0A0A0A",
"$#	c #050505",
"%#	c #CFBB5D",
"&#	c #C5AC51",
"*#	c #C4AD55",
"=#	c #BEA44E",
"-#	c #A68D42",
";#	c #615C2F",
">#	c #6D6230",
",#	c #262626",
"'#	c #212121",
")#	c #111111",
"!#	c #0C0C0C",
"~#	c #070707",
"{#	c #F5ED84",
"]#	c #EBE17B",
"^#	c #B8A14C",
"/#	c #C7AF57",
"(#	c #C9B257",
"_#	c #B9A04B",
":#	c #827136",
"<#	c #F3EA82",
"[#	c #BBA54E",
"}#	c #252525",
"|#	c #101010",
"1#	c #DBCA6D",
"2#	c #E9DB79",
"3#	c #F0E57F",
"4#	c #E8DD77",
"5#	c #C0A74F",
"6#	c #121212",
"7#	c #DFCE6E",
"8#	c #F1E57F",
"9#	c #DCCE6B",
"0#	c #D2BE60",
"a#	c #141414",
"                                                                ",
"                      . . . . . . . .                           ",
"                + + + @ # # $ % & * = - - -                     ",
"              + ; > , ' ) ! ~ , { ] ^ / ( _ -                   ",
"          : < [ ~ } | 1 2 3 4 , { 5 6 7 8 9 0 - a               ",
"        : b c d e f g h i j 4 , k l m n o p q r b a             ",
"      : b s t u v w } x ' y 4 , k z A B C D E F G b a           ",
"      < } H I t J K L g 1 ) M , N O 7 P Q R S T U V W           ",
"    + i X Y t I Z X e } ` 2  ., ..6 +.C @.#.$.U %.&.*.W         ",
"  + =.j s -.;.Z I >.-.L | i ! , ,.'.).!.~.{.U ].^./.(._.W   :.<.",
"  + # f L [.}.|.H I 1.K } 2.3.4.5.7 C R 6.U 7.8.9.0.a.b.c.d.e.  ",
"  + f.c } f L g.d h.I i.$ d.W j.d.k.l.F U m.n.o.p.p.c.:.q.W r.s.",
". t.x x | c } f w }.i.u.v.w.W j.W W b x.&.9.y.p.c.z.A.a.. B.C.D.",
". E.1 1 h ` x g } f F.v.% G.H.H.G.W W I.0.p.c.c.J.a.K.- L.M.N.O.",
". P.i i ' Q.Q.1 ` R.d.w.G.}     } G.W d.c.c.:.p.S.T.U.V.W.v.X.Y.",
". Z.) ) 2 2 2 [ i `.W W H.        I c.c.c.p.e. +.+++@+#+$+%+&+*+",
". =+3 3 3 3 3 3 3 3.j.j.H.      c.c.c.I.q.-+r.;+>+,+'+)+!+~+j.{+",
". ]+M M M 4 4 ~ ~ ^+d.W G.} c.c.c.I A.w.. /+(+_+:+<+[+}+|+1+2+3+",
". 4+> > f.f.5+, 6+7+8+W c.c.c.I J.q.K.9+0+a+b+c+_+d+e+f+g+h+<.S.",
". i+5+, 6+j+7+k+l+m+c.c.c.^+:.<.S.n+U.o+p+q+r+s+t+u+v+w+x+y+z+.+",
"  - A+7+B+C+D+m+c.c.c.m+c.d.e.E+F+G+H+I+J+f+K+L+M+N+O+P+Q+R+S+T+",
"  - U+l+V+m+c.c.c.m+c.:.q.W+X+Y+Z+`+ @.@+@@@#@$@%@&@*@=@-@;@>@,@",
"  - '@)@c.c.c.m+c.z.A.&+*+!@~@{@]@^@/@(@_@:@<@[@}@|@1@2@3@4@5@%+",
"    c.c.c.V+c.c.J.6@7@8@{+9@0@a@b@c@d@e@f@:.g@h@i@v+S+j@k@.@+@  ",
"c.c.c.V+c.c.:.[+S.T.l@m@3+n@o@p@q@r@s@t@u@v@w@x@y@z@I+A@B@  _@C@",
"c.  c.c.c._+d+e+f+D@h+E@F@G@H@I@J@K@L@M.N.r.s.M@N@5@O@  P@Q@f@  ",
"c.c.c.r+R@t+u+S@w+N@k@T@U@V@W@X@Y@Z@`@ #.#Y.W.v.+#  @###$#      ",
"c.J+%#&#L+M+*#O+P+Q+B@S+|@=#-#++;##+$+>#,#'#5@b )#!#~#          ",
"{#]#@@#@$@%@&@^#/#-@P@Q@,@;+(#_#'+:#o+N@k@W +@~+j.              ",
"(@<#:@<@[@}@|@1@2@[#4@c.(+_+:+<+D@}#I+W B@|#_@                  ",
"1#2#3#g@h@4#v+S+>+5#0+d.-+c+s.T+N@W O@6#P@                      ",
"d.u@7#w@8#y@3#n+9#0#p+q+B.C.W.  +#a#@#                          "};
